<?xml version="1.0" encoding="UTF-8"?>
<svg id="Layer_1" data-name="Layer 1" xmlns="http://www.w3.org/2000/svg" viewBox="0 0 256 256">
  <defs>
    <style>
      .cls-1 {
        font-family: BerlinSansFB-Reg, 'Berlin Sans FB';
        font-size: 44.13px;
      }

      .cls-2 {
        font-family: MicrosoftTaiLe, 'Microsoft Tai Le';
        font-size: 21px;
        letter-spacing: .6em;
      }

      .cls-2, .cls-3 {
        fill: #231f20;
      }

      .cls-4 {
        fill: #67923d;
      }

      .cls-5 {
        fill: #24420e;
      }
    </style>
  </defs>
  <g id="color-logo">
    <g>
      <path class="cls-5" d="m173.66,128.07s17.88.52-6.46-24.41c.45-1.31.87-2.63,1.27-3.95,2.09,1.59,4.22,3.28,6.37,5.07,16.49,13.71,15.38,29.6-1.18,23.29Z"/>
      <path class="cls-3" d="m111.58,92.75h0s0,0,0,0c-.09-.16-.17-.32-.26-.48.08.16.17.32.26.48Z"/>
      <path class="cls-4" d="m145.54,141.13c-7.95,9.08-17.43,16.94-28.2,23.16-17.28-9.97-31.24-24.18-40.88-40.89-9.64-16.7-14.97-35.9-14.97-55.85,1.64-.95,3.3-1.85,4.97-2.7,1.77,17.45,14.88,38.18,59.64,52.28,2.34,3.57,4.82,7.21,7.44,10.86,3.75,5.22,7.82,9.6,11.99,13.15Z"/>
      <path class="cls-4" d="m173.2,67.55c0,11.05-1.64,21.87-4.73,32.16-.4,1.33-.82,2.65-1.27,3.95-2.12,6.19-4.77,12.18-7.93,17.88-4.39-2.7-9.42-6.22-15.16-10.76,1.22-6.2,1.98-11.43,1.92-16.4v-.02c.1-.8,2.72-25.33-15.63-41.02,14.85,1.74,29.42,6.48,42.79,14.2Z"/>
      <g>
        <path class="cls-5" d="m99.93,69.03s-.02-.04-.02-.05c0,0,.01.01.01.02s0,.02,0,.03Z"/>
        <path class="cls-5" d="m146.03,94.34v.05c.06,4.96-.7,10.2-1.92,16.4-1.47-1.17-2.99-2.39-4.55-3.7,2.38-13.46,1.79-22.17-6.76-35.84-6.84-10.94-14.93-15.05-23.63-18.36-10.9-4.15-22.75-7.05-34.24-20.6,0,0-9.55,13.45-8.63,30.54-2.33-19.72,9.02-35.71,9.02-35.71,15.12,17.83,30.82,18.48,44.52,25.49,0,0,0,0,.01,0h0s.07.03.15.07c2.25,1.07,27.03,13.44,26.02,41.65Z"/>
        <path class="cls-5" d="m99.91,68.98c.21.22.42.44.62.66-.2-.21-.4-.42-.61-.64,0,0,0-.01-.01-.02Z"/>
        <path class="cls-5" d="m66.59,64.79s-.08.04-.12.06c-.07-.68-.12-1.35-.15-2.02.08.65.17,1.3.28,1.96Z"/>
        <path class="cls-5" d="m99.93,69.03s-.02-.04-.02-.05c0,0,.01.01.01.02s0,.02,0,.03Z"/>
        <path class="cls-5" d="m111.58,92.75h0c-.09-.16-.17-.32-.26-.48.08.16.17.32.26.48Z"/>
      </g>
      <path class="cls-5" d="m145.54,141.13c-4.17-3.55-8.24-7.93-11.99-13.15-2.62-3.65-5.11-7.29-7.44-10.86-.07-.1-.14-.21-.21-.32-1.02-1.57-2.03-3.13-2.99-4.67-.48-.77-.96-1.53-1.43-2.29-1.89-3.05-3.66-6.03-5.3-8.88-.21-.35-.41-.71-.61-1.06-.41-.71-.8-1.4-1.19-2.1-.39-.7-.77-1.38-1.15-2.05-.19-.34-.38-.68-.56-1.01-.3-.55-.6-1.09-.89-1.63-.07-.12-.13-.23-.19-.34h0c-.09-.17-.18-.33-.26-.49-.26-.48-.52-.96-.77-1.44-1.18-2.21-2.27-4.29-3.25-6.24-.28-.55-.56-1.1-.82-1.63-.14-.27-.27-.53-.4-.79-.26-.52-.51-1.03-.75-1.53-1.09-2.2-2.02-4.15-2.77-5.79-.16-.34-.31-.66-.45-.98-.03-.06-.06-.12-.08-.18-.14-.3-.27-.59-.4-.86-.07-.16-.15-.32-.22-.48-.06-.14-.12-.28-.19-.41-.12-.26-.22-.5-.32-.73-.05-.1-.08-.19-.13-.28-.02-.05-.04-.09-.06-.14-.08-.19-.16-.37-.23-.53-.04-.09-.08-.17-.12-.26-.04-.09-.07-.17-.11-.25-.02-.06-.05-.11-.06-.15-.03-.08-.06-.15-.09-.21-.03-.06-.05-.11-.07-.15-.03-.08-.06-.15-.08-.19h0s0-.03,0-.04c.01.02.03.04.05.06,1.29,1.91,18.55,27.28,37.8,47.02,1.44,1.47,2.88,2.91,4.33,4.31,3.89,3.74,7.83,7.18,11.68,10.07,10.38,7.78,20.23,11.61,27.37,6.97,5.99-3.45,7.47-10.89,7.47-10.89,5.9,28.53-20.17,34.08-43.08,14.58Z"/>
      <path class="cls-3" d="m111.58,92.75h0s0,0,0,0c-.09-.16-.17-.32-.26-.48.08.16.17.32.26.48Z"/>
    </g>
    <text class="cls-1" transform="translate(11.52 197.68)"><tspan class="cls-5" x="0" y="0">Green</tspan><tspan class="cls-3" x="110.1" y="0">Guard</tspan></text>
    <text class="cls-2" transform="translate(20.49 221.65)"><tspan x="0" y="0">SOLUTIONS</tspan></text>
  </g>
</svg>